<?xml version="1.0" encoding="UTF-8" standalone="no"?>
<!DOCTYPE svg PUBLIC "-//W3C//DTD SVG 1.1//EN" "http://www.w3.org/Graphics/SVG/1.1/DTD/svg11.dtd">
<svg width="100%" height="100%" viewBox="0 0 1667 367" version="1.1" xmlns="http://www.w3.org/2000/svg" xmlns:xlink="http://www.w3.org/1999/xlink" xml:space="preserve" xmlns:serif="http://www.serif.com/" style="fill-rule:evenodd;clip-rule:evenodd;stroke-linecap:round;stroke-linejoin:round;">
    <g id="Artboard1" transform="matrix(2.49007,0,0,2.49007,-156.783,-479.872)">
        <rect x="62.963" y="192.714" width="669.261" height="147.272" style="fill:none;"/>
        <g transform="matrix(0.51456,0,0,0.51456,191.274,125.129)">
            <g transform="matrix(0.171022,0,0,0.171022,161.951,265.666)">
                <g transform="matrix(1,0,0,1,-400,-400)">
                    <path d="M400,627.325C179.025,627.325 0,507.425 0,359.35C0,211.45 179.025,91.525 400,91.525C620.975,91.525 800,211.45 800,359.35C800,507.425 620.975,627.325 400,627.325ZM461.2,196.225C293.375,196.225 157.175,278.25 157.175,379.425C157.175,480.6 293.375,562.625 461.2,562.625C629.025,562.625 753.125,506.5 753.125,379.425C753.125,252.325 629.15,196.225 461.2,196.225ZM609.1,506.5C622.275,510.4 635.025,515.225 647.525,520.975C654.7,524.475 661.2,529.175 666.925,534.775C670.425,538.55 673.425,542.85 675.75,547.55L771.225,708.475L616.925,708.475L544.8,573.05C538.175,561.225 530.2,550.275 520.975,540.375C516.275,535.175 509.65,532.05 502.6,532.05L466,532.05L466,708.35L329.575,708.475L329.575,257.95L603.65,257.95C603.65,257.95 728.425,260.175 728.425,378.925C728.65,446.25 676.45,502.225 609.125,506.525L609.1,506.5ZM549.875,355.6L467.2,355.6L467.2,432.175L549.875,432.175C571.375,432.45 588.8,414.7 588.175,393.25C589.35,371.625 571.375,354.05 549.875,355.625L549.875,355.6Z" style="fill-rule:nonzero;"/>
                </g>
            </g>
            <g transform="matrix(0.131612,0,0,0.131612,318.785,266.544)">
                <g transform="matrix(1,0,0,1,-400,-400)">
                    <g id="_5151e0c8492e5103c096af88a51ec286" serif:id="5151e0c8492e5103c096af88a51ec286">
                        <path d="M304.272,385.748L494.534,385.748C547.503,385.748 589.778,342.142 589.778,288.952L589.778,107.572C589.778,55.955 546.231,17.173 494.534,8.555C461.811,3.111 427.858,0.634 395.3,0.788C362.73,0.939 331.644,3.716 304.272,8.555C223.669,22.8 209.034,52.603 209.034,107.572L209.034,180.17L399.516,180.17L399.516,204.367L137.55,204.367C82.184,204.367 33.708,237.641 18.553,300.942C1.066,373.497 0.281,418.769 18.553,494.533C32.094,550.92 64.427,591.106 119.788,591.106L185.283,591.106L185.283,504.077C185.283,441.203 239.672,385.748 304.272,385.748ZM292.286,131.77C272.542,131.77 256.541,115.591 256.541,95.581C256.541,75.505 272.542,59.175 292.286,59.175C311.964,59.175 328.025,75.505 328.025,95.581C328.025,115.592 311.966,131.77 292.286,131.77ZM780.266,300.942C766.577,245.833 740.447,204.367 685.016,204.367L613.531,204.367L613.531,288.952C613.531,354.533 557.934,409.72 494.534,409.72L304.272,409.72C252.164,409.72 209.034,454.325 209.034,506.523L209.034,687.897C209.034,739.517 253.919,769.891 304.272,784.683C364.567,802.422 422.381,805.634 494.534,784.683C542.484,770.814 589.778,742.864 589.778,687.897L589.778,615.302L399.516,615.302L399.516,591.105L685.016,591.105C740.377,591.105 761.012,552.488 780.266,494.531C800.144,434.866 799.295,377.483 780.266,300.942ZM506.528,663.697C526.278,663.697 542.267,679.878 542.267,699.878C542.267,719.956 526.278,736.292 506.528,736.292C486.848,736.292 470.783,719.956 470.783,699.878C470.783,679.878 486.848,663.697 506.528,663.697Z" style="fill-rule:nonzero;"/>
                    </g>
                </g>
            </g>
            <g transform="matrix(1.02272,0,0,1.02272,464.93,267.065)">
                <g transform="matrix(1,0,0,1,-72,-72)">
                    <path d="M71.05,23.68C44.99,23.68 23.78,44.9 23.78,70.95C23.78,97 45,118.22 71.05,118.22C97.1,118.22 118.32,97 118.32,70.95C118.32,44.9 97.1,23.68 71.05,23.68ZM70.98,27.88C72.65,27.923 74.001,29.314 74,30.99C74,32.696 72.596,34.1 70.89,34.1C69.184,34.1 67.78,32.696 67.78,30.99C67.78,30.99 67.78,30.989 67.78,30.989C67.78,29.283 69.184,27.879 70.89,27.879C70.92,27.879 70.95,27.879 70.98,27.88ZM78.1,33C89.144,35.069 98.735,41.899 104.3,51.66L100.63,59.94C100,61.37 100.65,63.05 102.07,63.69L109.13,66.82C109.349,69.027 109.376,71.249 109.21,73.46L105.28,73.46C104.89,73.46 104.73,73.72 104.73,74.1L104.73,75.9C104.73,80.14 102.34,81.07 100.24,81.3C98.24,81.53 96.03,80.46 95.75,79.24C94.57,72.61 92.61,71.2 89.51,68.75C93.36,66.31 97.36,62.7 97.36,57.88C97.36,52.67 93.79,49.39 91.36,47.78C87.94,45.53 84.16,45.08 83.14,45.08L42.54,45.08C48.153,38.81 55.681,34.562 63.95,33L68.74,38.02C69.82,39.15 71.61,39.2 72.74,38.11L78.1,33ZM33.9,56.02C35.572,56.068 36.921,57.457 36.92,59.13C36.92,60.836 35.516,62.24 33.81,62.24C32.104,62.24 30.7,60.836 30.7,59.13C30.7,59.13 30.7,59.129 30.7,59.129C30.7,57.423 32.104,56.019 33.81,56.019C33.84,56.019 33.87,56.019 33.9,56.02ZM108.05,56.16C109.722,56.208 111.071,57.597 111.07,59.27C111.07,60.976 109.666,62.38 107.96,62.38C106.254,62.38 104.85,60.976 104.85,59.27C104.85,59.27 104.85,59.269 104.85,59.269C104.85,57.563 106.254,56.159 107.96,56.159C107.99,56.159 108.02,56.159 108.05,56.16ZM39.76,56.66L45.18,56.66L45.18,81.1L34.24,81.1C32.889,76.356 32.468,71.394 33,66.49L39.7,63.51C41.13,62.87 41.78,61.2 41.14,59.77L39.76,56.66ZM62.38,56.92L75.29,56.92C75.96,56.92 80,57.69 80,60.72C80,63.23 76.9,64.13 74.35,64.13L62.37,64.13L62.38,56.92ZM62.38,74.48L72.27,74.48C73.17,74.48 77.1,74.74 78.35,79.76C78.74,81.3 79.61,86.32 80.2,87.93C80.79,89.73 83.18,93.33 85.73,93.33L101.87,93.33C100.788,94.779 99.605,96.149 98.33,97.43L91.76,96.02C90.23,95.69 88.72,96.67 88.39,98.2L86.83,105.48C76.684,110.076 65.022,110.021 54.92,105.33L53.36,98.05C53.03,96.52 51.53,95.54 50,95.87L43.57,97.25C42.377,96.019 41.268,94.71 40.25,93.33L71.52,93.33C71.87,93.33 72.11,93.27 72.11,92.94L72.11,81.88C72.11,81.56 71.87,81.49 71.52,81.49L62.37,81.49L62.38,74.48ZM47.95,99.81C49.622,99.858 50.971,101.247 50.97,102.92C50.97,104.626 49.566,106.03 47.86,106.03C46.154,106.03 44.75,104.626 44.75,102.92C44.75,102.92 44.75,102.919 44.75,102.919C44.75,101.213 46.154,99.809 47.86,99.809C47.89,99.809 47.92,99.809 47.95,99.81ZM94,99.95C95.672,99.998 97.021,101.387 97.02,103.06C97.02,104.766 95.616,106.17 93.91,106.17C92.204,106.17 90.8,104.766 90.8,103.06C90.8,103.06 90.8,103.059 90.8,103.059C90.8,101.353 92.204,99.949 93.91,99.949C93.94,99.949 93.97,99.949 94,99.95Z" style="fill-rule:nonzero;"/>
                    <path d="M115.68,70.95C115.68,95.433 95.533,115.58 71.05,115.58C46.567,115.58 26.42,95.433 26.42,70.95C26.42,46.467 46.567,26.32 71.05,26.32C95.533,26.32 115.68,46.467 115.68,70.95ZM114.84,66.64L121.8,70.95L114.84,75.26L120.82,80.85L113.16,83.72L117.94,90.37L109.85,91.69L113.25,99.15L105.06,98.86L106.94,106.84L98.96,104.96L99.25,113.15L91.79,109.75L90.47,117.84L83.82,113.06L80.95,120.72L75.36,114.74L71.05,121.7L66.74,114.74L61.15,120.72L58.28,113.06L51.63,117.84L50.31,109.75L42.85,113.15L43.14,104.96L35.16,106.84L37.04,98.86L28.85,99.15L32.25,91.69L24.16,90.37L28.94,83.72L21.28,80.85L27.26,75.26L20.3,70.95L27.26,66.64L21.28,61.05L28.94,58.18L24.16,51.53L32.25,50.21L28.85,42.75L37.04,43.04L35.16,35.06L43.14,36.94L42.85,28.75L50.31,32.15L51.63,24.06L58.28,28.84L61.15,21.18L66.74,27.16L71.05,20.2L75.36,27.16L80.95,21.18L83.82,28.84L90.47,24.06L91.79,32.15L99.25,28.75L98.96,36.94L106.94,35.06L105.06,43.04L113.25,42.75L109.85,50.21L117.94,51.53L113.16,58.18L120.82,61.05L114.84,66.64Z" style="stroke:black;stroke-width:3px;"/>
                </g>
            </g>
            <g transform="matrix(0.204155,0,0,0.204155,626.723,266.252)">
                <g transform="matrix(1,0,0,1,-400,-400)">
                    <g>
                        <path d="M551.716,331.655C526.088,331.626 505.334,310.833 505.353,285.205C505.372,259.578 526.158,238.815 551.785,238.825C577.413,238.834 598.183,259.612 598.183,285.24C598.154,310.883 577.359,331.655 551.716,331.655Z" style="fill-rule:nonzero;"/>
                        <path d="M663.268,331.655C637.641,331.626 616.886,310.833 616.906,285.205C616.925,259.578 637.71,238.815 663.338,238.825C688.965,238.834 709.736,259.612 709.736,285.24C709.707,310.883 688.911,331.655 663.268,331.655Z" style="fill-rule:nonzero;"/>
                        <path d="M607.518,235.018C581.884,235.018 561.103,214.237 561.103,188.603C561.103,162.968 581.884,142.188 607.518,142.188C633.153,142.188 653.933,162.968 653.933,188.603C653.947,200.917 649.061,212.731 640.354,221.438C631.646,230.146 619.832,235.032 607.518,235.018Z" style="fill-rule:nonzero;"/>
                        <path d="M115.623,331.655C89.988,331.655 69.208,310.874 69.208,285.24C69.208,259.605 89.988,238.825 115.623,238.825C141.257,238.825 162.038,259.605 162.038,285.24C162.009,310.862 141.245,331.626 115.623,331.655Z" style="fill-rule:nonzero;"/>
                        <path d="M151.972,563.73C152.523,579.949 150.21,596.138 145.141,611.553C141.53,622.485 135.002,632.222 126.262,639.715C117.775,646.671 107.649,651.339 96.848,653.275C84.272,655.716 71.483,656.887 58.673,656.769C50.247,656.856 41.837,656.034 33.588,654.318C27.146,653.017 20.927,650.786 15.126,647.695C10.685,645.399 6.858,642.073 3.966,637.994C1.428,634.725 0.036,630.712 0.002,626.573C-0.094,619.734 2.964,613.232 8.294,608.946C14.725,603.951 22.746,601.451 30.876,601.905C34.204,601.834 37.514,602.401 40.628,603.574C43.291,604.601 45.8,605.987 48.086,607.694C50.223,609.42 52.244,611.284 54.136,613.274C55.752,615.361 57.213,617.29 58.464,619.115C60.689,622.173 63.341,624.895 66.339,627.199C68.115,628.42 70.186,629.141 72.337,629.285C74.179,629.306 75.989,628.799 77.552,627.825C79.302,626.517 80.597,624.693 81.255,622.61C82.4,619.4 83.102,616.048 83.341,612.649C83.971,607.353 84.25,602.022 84.175,596.69L84.175,353.298L151.972,334.628L151.972,563.73ZM251.061,340.051L251.061,496.82C251.037,501.096 251.871,505.334 253.512,509.284C255.327,512.911 257.783,516.179 260.761,518.932C263.836,521.716 267.364,523.956 271.191,525.555C275.152,527.224 279.41,528.075 283.708,528.058C286.618,527.928 289.472,527.219 292.104,525.972C295.467,524.429 298.621,522.466 301.492,520.131C304.899,517.544 308.059,514.646 310.931,511.474C314.1,508.104 316.914,504.417 319.328,500.47L319.328,340.051L387.125,340.051L387.125,564.304L319.328,564.304L319.328,543.443C310.827,550.915 301.288,557.116 291.009,561.853C281.875,566.122 271.938,568.397 261.856,568.528C251.368,568.677 240.94,566.91 231.087,563.313C221.974,559.82 213.566,554.714 206.262,548.241C199.33,541.967 193.711,534.38 189.73,525.92C185.725,517.278 183.677,507.857 183.732,498.332L183.732,340.051L251.061,340.051ZM522.25,353.924L590.047,335.253L590.047,564.304L522.25,564.304L522.25,353.924ZM485.744,564.304L417.947,564.304L417.947,252.384L485.744,233.714L485.744,564.304ZM798.654,564.304L730.857,564.304L730.857,546.468C727.154,549.649 723.452,552.57 719.853,555.177C716.085,557.895 712.069,560.253 707.858,562.218C703.138,564.279 698.206,565.818 693.151,566.807C686.647,567.977 680.046,568.519 673.438,568.424C663.994,568.565 654.595,567.101 645.641,564.095C637.985,561.441 630.906,557.353 624.78,552.048C619.153,546.916 614.69,540.639 611.69,533.639C608.639,526.431 607.095,518.675 607.153,510.848C607.006,502.908 608.628,495.034 611.899,487.797C615.255,480.888 619.75,474.594 625.198,469.179C631.117,463.422 637.72,458.413 644.859,454.264C652.675,449.73 660.775,445.706 669.109,442.217C677.819,438.618 686.841,435.333 696.072,432.256L723.452,423.338L730.909,421.721L730.909,399.504C731.029,393.427 730.256,387.365 728.615,381.512C727.542,377.098 725.493,372.981 722.617,369.465C720.212,366.353 716.976,363.985 713.282,362.633C709.374,361.206 705.239,360.499 701.078,360.547C696.488,360.431 691.913,361.137 687.571,362.633C684.259,363.861 681.277,365.843 678.862,368.422C676.65,370.775 675.024,373.615 674.116,376.714C673.09,380.094 672.598,383.613 672.656,387.144C672.681,391.274 672.191,395.392 671.196,399.4C670.432,403.194 668.809,406.762 666.45,409.83C663.943,412.799 660.734,415.093 657.115,416.506C652.33,418.498 647.169,419.423 641.991,419.218C637.54,419.271 633.114,418.566 628.9,417.132C625.243,415.755 621.867,413.723 618.939,411.134C616.197,408.518 613.953,405.426 612.316,402.008C610.798,398.41 610.017,394.544 610.021,390.639C610.066,382.81 612.852,375.244 617.896,369.256C623.731,362.16 630.931,356.308 639.07,352.046C648.813,346.955 659.198,343.201 669.944,340.886C682.119,338.068 694.579,336.668 707.076,336.714C720.885,336.481 734.67,337.952 748.119,341.094C758.33,343.373 768.035,347.51 776.751,353.298C783.829,358.128 789.541,364.702 793.335,372.385C796.958,380.242 798.741,388.821 798.55,397.47L798.654,564.304ZM730.857,448.683C724.127,451.565 717.563,454.821 711.196,458.436C704.814,461.853 698.772,465.869 693.151,470.431C688.067,474.404 683.588,479.094 679.853,484.355C676.569,488.803 674.747,494.16 674.637,499.688C674.625,503.813 675.187,507.921 676.306,511.891C677.31,515.421 678.839,518.779 680.844,521.852C682.584,524.413 684.754,526.654 687.258,528.476C689.569,530.088 692.315,530.961 695.133,530.979C701.029,530.761 706.758,528.96 711.717,525.764C718.234,521.807 724.536,517.507 730.596,512.882L730.857,448.683Z" style="fill:rgb(26,26,26);fill-rule:nonzero;"/>
                    </g>
                </g>
            </g>
        </g>
        <g transform="matrix(1.8701,0,0,1.8701,76.7272,-178.592)">
            <text x="157.339px" y="267.018px" style="font-family:'JetBrainsMono-Regular_ExtraBold', 'JetBrains Mono', monospace;font-size:12px;">2024</text>
        </g>
    </g>
</svg>
