<?xml version="1.0" encoding="UTF-8" standalone="no"?>
<!DOCTYPE svg PUBLIC "-//W3C//DTD SVG 1.1//EN" "http://www.w3.org/Graphics/SVG/1.1/DTD/svg11.dtd">
<svg width="100%" height="100%" viewBox="0 0 919 432" version="1.1" xmlns="http://www.w3.org/2000/svg" xmlns:xlink="http://www.w3.org/1999/xlink" xml:space="preserve" xmlns:serif="http://www.serif.com/" style="fill-rule:evenodd;clip-rule:evenodd;stroke-linejoin:round;stroke-miterlimit:2;">
    <g id="Artboard1" transform="matrix(0.845205,0,0,0.803089,-653.148,-1248.28)">
        <rect x="772.769" y="1554.35" width="1086.41" height="536.849" style="fill:none;"/>
        <clipPath id="_clip1">
            <rect x="772.769" y="1554.35" width="1086.41" height="536.849"/>
        </clipPath>
        <g clip-path="url(#_clip1)">
            <g transform="matrix(4.92977,0,0,5.1883,-238.703,-434.879)">
                <g transform="matrix(23.6279,0,0,23.6279,309.852,420.323)">
                    <path d="M0.09,-0L0.09,-0.723L0.29,-0.723L0.463,-0.214L0.643,-0.723L0.817,-0.723L0.817,-0L0.679,-0L0.679,-0.545L0.502,-0.048L0.381,-0.048L0.208,-0.553L0.208,-0L0.09,-0Z" style="fill-rule:nonzero;"/>
                </g>
                <g transform="matrix(23.6279,0,0,23.6279,331.672,420.323)">
                    <path d="M0.353,-0.058C0.305,-0.011 0.253,0.012 0.198,0.012C0.151,0.012 0.113,-0.002 0.084,-0.031C0.055,-0.059 0.04,-0.097 0.04,-0.142C0.04,-0.201 0.064,-0.247 0.111,-0.279C0.158,-0.311 0.226,-0.327 0.314,-0.327L0.353,-0.327L0.353,-0.376C0.353,-0.432 0.321,-0.459 0.258,-0.459C0.201,-0.459 0.145,-0.444 0.087,-0.412L0.087,-0.511C0.152,-0.536 0.217,-0.548 0.281,-0.548C0.422,-0.548 0.492,-0.493 0.492,-0.381L0.492,-0.144C0.492,-0.102 0.505,-0.081 0.532,-0.081C0.537,-0.081 0.543,-0.081 0.551,-0.083L0.555,-0.001C0.524,0.008 0.497,0.012 0.474,0.012C0.414,0.012 0.376,-0.011 0.359,-0.058L0.353,-0.058ZM0.353,-0.135L0.353,-0.244L0.319,-0.244C0.225,-0.244 0.179,-0.215 0.179,-0.156C0.179,-0.136 0.185,-0.12 0.199,-0.106C0.212,-0.093 0.229,-0.086 0.249,-0.086C0.283,-0.086 0.318,-0.102 0.353,-0.135Z" style="fill-rule:nonzero;"/>
                </g>
                <g transform="matrix(23.6279,0,0,23.6279,345.934,420.323)">
                    <path d="M0.09,0.193L0.09,-0.536L0.235,-0.536L0.235,-0.435C0.272,-0.511 0.33,-0.548 0.41,-0.548C0.475,-0.548 0.525,-0.525 0.562,-0.478C0.599,-0.43 0.618,-0.365 0.618,-0.283C0.618,-0.193 0.597,-0.121 0.555,-0.068C0.514,-0.014 0.458,0.012 0.388,0.012C0.331,0.012 0.28,-0.01 0.235,-0.054L0.235,0.193L0.09,0.193ZM0.235,-0.14C0.27,-0.101 0.307,-0.082 0.347,-0.082C0.383,-0.082 0.411,-0.099 0.432,-0.133C0.453,-0.167 0.464,-0.213 0.464,-0.271C0.464,-0.38 0.429,-0.435 0.358,-0.435C0.315,-0.435 0.274,-0.408 0.235,-0.353L0.235,-0.14Z" style="fill-rule:nonzero;"/>
                </g>
                <g transform="matrix(23.6279,0,0,23.6279,309.852,448.321)">
                    <path d="M0.353,-0.058C0.305,-0.011 0.253,0.012 0.198,0.012C0.151,0.012 0.113,-0.002 0.084,-0.031C0.055,-0.059 0.04,-0.097 0.04,-0.142C0.04,-0.201 0.064,-0.247 0.111,-0.279C0.158,-0.311 0.226,-0.327 0.314,-0.327L0.353,-0.327L0.353,-0.376C0.353,-0.432 0.321,-0.459 0.258,-0.459C0.201,-0.459 0.145,-0.444 0.087,-0.412L0.087,-0.511C0.152,-0.536 0.217,-0.548 0.281,-0.548C0.422,-0.548 0.492,-0.493 0.492,-0.381L0.492,-0.144C0.492,-0.102 0.505,-0.081 0.532,-0.081C0.537,-0.081 0.543,-0.081 0.551,-0.083L0.555,-0.001C0.524,0.008 0.497,0.012 0.474,0.012C0.414,0.012 0.376,-0.011 0.359,-0.058L0.353,-0.058ZM0.353,-0.135L0.353,-0.244L0.319,-0.244C0.225,-0.244 0.179,-0.215 0.179,-0.156C0.179,-0.136 0.185,-0.12 0.199,-0.106C0.212,-0.093 0.229,-0.086 0.249,-0.086C0.283,-0.086 0.318,-0.102 0.353,-0.135Z" style="fill-rule:nonzero;"/>
                </g>
                <g transform="matrix(23.6279,0,0,23.6279,324.115,448.321)">
                    <path d="M0.09,-0L0.09,-0.536L0.235,-0.536L0.235,-0.435C0.282,-0.511 0.343,-0.548 0.417,-0.548C0.465,-0.548 0.503,-0.533 0.531,-0.503C0.558,-0.473 0.572,-0.431 0.572,-0.379L0.572,-0L0.428,-0L0.428,-0.343C0.428,-0.404 0.408,-0.435 0.367,-0.435C0.321,-0.435 0.277,-0.402 0.235,-0.337L0.235,-0L0.09,-0Z" style="fill-rule:nonzero;"/>
                </g>
                <g transform="matrix(23.6279,0,0,23.6279,340.004,448.321)">
                    <path d="M0.428,-0L0.428,-0.101C0.391,-0.026 0.332,0.012 0.252,0.012C0.188,0.012 0.137,-0.011 0.101,-0.059C0.064,-0.106 0.045,-0.171 0.045,-0.253C0.045,-0.343 0.066,-0.415 0.108,-0.468C0.149,-0.522 0.205,-0.548 0.275,-0.548C0.331,-0.548 0.382,-0.526 0.428,-0.482L0.428,-0.771L0.573,-0.771L0.573,-0L0.428,-0ZM0.428,-0.396C0.393,-0.435 0.356,-0.455 0.316,-0.455C0.28,-0.455 0.252,-0.438 0.231,-0.403C0.21,-0.369 0.199,-0.323 0.199,-0.266C0.199,-0.156 0.234,-0.101 0.305,-0.101C0.348,-0.101 0.389,-0.129 0.428,-0.184L0.428,-0.396Z" style="fill-rule:nonzero;"/>
                </g>
                <g transform="matrix(23.6279,0,0,23.6279,364.191,448.321)">
                    <path d="M0.09,-0L0.09,-0.723L0.401,-0.723C0.513,-0.723 0.599,-0.693 0.659,-0.634C0.718,-0.574 0.748,-0.488 0.748,-0.376C0.748,-0.257 0.716,-0.165 0.653,-0.099C0.59,-0.033 0.502,-0 0.388,-0L0.09,-0ZM0.241,-0.103L0.353,-0.103C0.432,-0.103 0.491,-0.124 0.53,-0.168C0.569,-0.212 0.588,-0.278 0.588,-0.368C0.588,-0.437 0.573,-0.494 0.542,-0.54C0.52,-0.572 0.494,-0.593 0.464,-0.605C0.434,-0.618 0.389,-0.624 0.332,-0.624L0.241,-0.624L0.241,-0.103Z" style="fill-rule:nonzero;"/>
                </g>
                <g transform="matrix(23.6279,0,0,23.6279,383.299,448.321)">
                    <path d="M0.353,-0.058C0.305,-0.011 0.253,0.012 0.198,0.012C0.151,0.012 0.113,-0.002 0.084,-0.031C0.055,-0.059 0.04,-0.097 0.04,-0.142C0.04,-0.201 0.064,-0.247 0.111,-0.279C0.158,-0.311 0.226,-0.327 0.314,-0.327L0.353,-0.327L0.353,-0.376C0.353,-0.432 0.321,-0.459 0.258,-0.459C0.201,-0.459 0.145,-0.444 0.087,-0.412L0.087,-0.511C0.152,-0.536 0.217,-0.548 0.281,-0.548C0.422,-0.548 0.492,-0.493 0.492,-0.381L0.492,-0.144C0.492,-0.102 0.505,-0.081 0.532,-0.081C0.537,-0.081 0.543,-0.081 0.551,-0.083L0.555,-0.001C0.524,0.008 0.497,0.012 0.474,0.012C0.414,0.012 0.376,-0.011 0.359,-0.058L0.353,-0.058ZM0.353,-0.135L0.353,-0.244L0.319,-0.244C0.225,-0.244 0.179,-0.215 0.179,-0.156C0.179,-0.136 0.185,-0.12 0.199,-0.106C0.212,-0.093 0.229,-0.086 0.249,-0.086C0.283,-0.086 0.318,-0.102 0.353,-0.135Z" style="fill-rule:nonzero;"/>
                </g>
                <g transform="matrix(23.6279,0,0,23.6279,397.562,448.321)">
                    <path d="M0.367,-0.003C0.332,0.007 0.305,0.012 0.285,0.012C0.16,0.012 0.097,-0.046 0.097,-0.164L0.097,-0.446L0.037,-0.446L0.037,-0.536L0.097,-0.536L0.097,-0.626L0.242,-0.643L0.242,-0.536L0.356,-0.536L0.356,-0.446L0.242,-0.446L0.242,-0.183C0.242,-0.117 0.269,-0.084 0.322,-0.084C0.335,-0.084 0.349,-0.086 0.367,-0.091L0.367,-0.003Z" style="fill-rule:nonzero;"/>
                </g>
                <g transform="matrix(23.6279,0,0,23.6279,407.509,448.321)">
                    <path d="M0.353,-0.058C0.305,-0.011 0.253,0.012 0.198,0.012C0.151,0.012 0.113,-0.002 0.084,-0.031C0.055,-0.059 0.04,-0.097 0.04,-0.142C0.04,-0.201 0.064,-0.247 0.111,-0.279C0.158,-0.311 0.226,-0.327 0.314,-0.327L0.353,-0.327L0.353,-0.376C0.353,-0.432 0.321,-0.459 0.258,-0.459C0.201,-0.459 0.145,-0.444 0.087,-0.412L0.087,-0.511C0.152,-0.536 0.217,-0.548 0.281,-0.548C0.422,-0.548 0.492,-0.493 0.492,-0.381L0.492,-0.144C0.492,-0.102 0.505,-0.081 0.532,-0.081C0.537,-0.081 0.543,-0.081 0.551,-0.083L0.555,-0.001C0.524,0.008 0.497,0.012 0.474,0.012C0.414,0.012 0.376,-0.011 0.359,-0.058L0.353,-0.058ZM0.353,-0.135L0.353,-0.244L0.319,-0.244C0.225,-0.244 0.179,-0.215 0.179,-0.156C0.179,-0.136 0.185,-0.12 0.199,-0.106C0.212,-0.093 0.229,-0.086 0.249,-0.086C0.283,-0.086 0.318,-0.102 0.353,-0.135Z" style="fill-rule:nonzero;"/>
                </g>
                <g transform="matrix(23.6279,0,0,23.6279,309.852,476.319)">
                    <path d="M0.672,-0.029C0.602,0.002 0.518,0.018 0.421,0.018C0.303,0.018 0.211,-0.015 0.145,-0.082C0.078,-0.149 0.045,-0.242 0.045,-0.361C0.045,-0.483 0.079,-0.577 0.145,-0.642C0.212,-0.708 0.307,-0.741 0.43,-0.741C0.509,-0.741 0.587,-0.731 0.665,-0.713L0.665,-0.595C0.577,-0.626 0.503,-0.642 0.443,-0.642C0.367,-0.642 0.308,-0.617 0.267,-0.569C0.226,-0.521 0.205,-0.452 0.205,-0.363C0.205,-0.276 0.227,-0.208 0.272,-0.159C0.316,-0.11 0.378,-0.086 0.457,-0.086C0.528,-0.086 0.6,-0.104 0.672,-0.14L0.672,-0.029Z" style="fill-rule:nonzero;"/>
                </g>
                <g transform="matrix(23.6279,0,0,23.6279,327.057,476.319)">
                    <path d="M0.527,-0.018C0.458,0.002 0.393,0.012 0.332,0.012C0.242,0.012 0.171,-0.013 0.12,-0.064C0.068,-0.115 0.042,-0.184 0.042,-0.272C0.042,-0.355 0.066,-0.422 0.113,-0.472C0.16,-0.523 0.223,-0.548 0.301,-0.548C0.379,-0.548 0.437,-0.524 0.473,-0.474C0.509,-0.425 0.527,-0.346 0.527,-0.239L0.194,-0.239C0.204,-0.137 0.26,-0.086 0.363,-0.086C0.411,-0.086 0.466,-0.097 0.527,-0.12L0.527,-0.018ZM0.192,-0.321L0.385,-0.321C0.385,-0.412 0.355,-0.458 0.296,-0.458C0.236,-0.458 0.202,-0.412 0.192,-0.321Z" style="fill-rule:nonzero;"/>
                </g>
                <g transform="matrix(23.6279,0,0,23.6279,341.273,476.319)">
                    <path d="M0.09,-0L0.09,-0.536L0.235,-0.536L0.235,-0.435C0.282,-0.511 0.343,-0.548 0.417,-0.548C0.465,-0.548 0.503,-0.533 0.531,-0.503C0.558,-0.473 0.572,-0.431 0.572,-0.379L0.572,-0L0.428,-0L0.428,-0.343C0.428,-0.404 0.408,-0.435 0.367,-0.435C0.321,-0.435 0.277,-0.402 0.235,-0.337L0.235,-0L0.09,-0Z" style="fill-rule:nonzero;"/>
                </g>
                <g transform="matrix(23.6279,0,0,23.6279,357.162,476.319)">
                    <path d="M0.367,-0.003C0.332,0.007 0.305,0.012 0.285,0.012C0.16,0.012 0.097,-0.046 0.097,-0.164L0.097,-0.446L0.037,-0.446L0.037,-0.536L0.097,-0.536L0.097,-0.626L0.242,-0.643L0.242,-0.536L0.356,-0.536L0.356,-0.446L0.242,-0.446L0.242,-0.183C0.242,-0.117 0.269,-0.084 0.322,-0.084C0.335,-0.084 0.349,-0.086 0.367,-0.091L0.367,-0.003Z" style="fill-rule:nonzero;"/>
                </g>
                <g transform="matrix(23.6279,0,0,23.6279,367.11,476.319)">
                    <path d="M0.09,-0L0.09,-0.536L0.235,-0.536L0.235,-0.435C0.272,-0.511 0.329,-0.548 0.406,-0.548C0.415,-0.548 0.424,-0.547 0.433,-0.545L0.433,-0.417C0.412,-0.424 0.393,-0.428 0.375,-0.428C0.318,-0.428 0.271,-0.399 0.235,-0.34L0.235,-0L0.09,-0Z" style="fill-rule:nonzero;"/>
                </g>
                <g transform="matrix(23.6279,0,0,23.6279,378.223,476.319)">
                    <path d="M0.527,-0.018C0.458,0.002 0.393,0.012 0.332,0.012C0.242,0.012 0.171,-0.013 0.12,-0.064C0.068,-0.115 0.042,-0.184 0.042,-0.272C0.042,-0.355 0.066,-0.422 0.113,-0.472C0.16,-0.523 0.223,-0.548 0.301,-0.548C0.379,-0.548 0.437,-0.524 0.473,-0.474C0.509,-0.425 0.527,-0.346 0.527,-0.239L0.194,-0.239C0.204,-0.137 0.26,-0.086 0.363,-0.086C0.411,-0.086 0.466,-0.097 0.527,-0.12L0.527,-0.018ZM0.192,-0.321L0.385,-0.321C0.385,-0.412 0.355,-0.458 0.296,-0.458C0.236,-0.458 0.202,-0.412 0.192,-0.321Z" style="fill-rule:nonzero;"/>
                </g>
            </g>
            <g transform="matrix(4.92977,0,0,5.1883,-238.703,998.477)">
                <path d="M244.816,109.543C222.959,109.543 205.176,127.325 205.176,149.182C205.176,162.196 217.086,178.991 227.076,190.788C228.753,192.763 234.132,198.55 234.132,198.55L244.375,187.925C246.89,185.305 248.294,181.814 248.294,178.182L248.294,172.377L259.74,160.94C260.203,161.05 260.683,161.114 261.178,161.114C264.633,161.114 267.443,158.303 267.443,154.847C267.443,151.393 264.633,148.583 261.178,148.583C257.724,148.583 254.915,151.393 254.915,154.847C254.915,155.396 254.993,155.926 255.126,156.433L248.294,163.258L248.294,137.779C250.095,136.677 251.303,134.697 251.303,132.435C251.303,128.98 248.493,126.17 245.039,126.17C241.585,126.17 238.774,128.98 238.774,132.435C238.774,134.722 240.009,136.72 241.843,137.814L241.843,154.253L234.893,147.312C235.038,146.784 235.122,146.231 235.122,145.657C235.122,142.203 232.313,139.392 228.859,139.392C225.404,139.392 222.594,142.203 222.594,145.657C222.594,149.113 225.404,151.923 228.859,151.923C229.329,151.923 229.786,151.867 230.227,151.768L241.843,163.373L241.843,178.186C241.843,180.152 241.083,182.042 239.722,183.46L234.33,189.03L231.377,185.888C227.98,181.836 224.939,177.871 222.341,174.103C217.353,166.872 211.627,157.503 211.627,149.182C211.627,130.88 226.515,115.99 244.816,115.99C263.118,115.99 278.007,130.88 278.007,149.182C278.007,157.492 272.267,166.849 267.267,174.072C263.255,179.872 255.555,189.827 245.148,199.82L240.232,204.922C242.236,206.925 243.847,208.582 244.792,209.466C254.467,200.198 284.457,169.784 284.457,149.182C284.457,127.325 266.674,109.543 244.816,109.543" style="fill-rule:nonzero;"/>
            </g>
        </g>
    </g>
</svg>
